<?xml version="1.0" standalone="no"?>
<!DOCTYPE svg PUBLIC "-//W3C//DTD SVG 20010904//EN"
 "http://www.w3.org/TR/2001/REC-SVG-20010904/DTD/svg10.dtd">
<svg version="1.0" xmlns="http://www.w3.org/2000/svg"
 width="512.000000pt" height="512.000000pt" viewBox="0 0 512.000000 512.000000"
 preserveAspectRatio="xMidYMid meet">

<g transform="translate(0.000000,512.000000) scale(0.100000,-0.100000)"
fill="#000000" stroke="none">
<path d="M3146 4628 c-14 -19 -16 -63 -16 -283 l0 -261 -75 -12 c-274 -43
-510 -214 -641 -466 l-42 -80 -153 -1 c-202 -2 -336 -33 -504 -118 -208 -103
-400 -305 -501 -521 -70 -152 -112 -366 -101 -511 l5 -72 -86 -6 c-514 -37
-906 -508 -843 -1012 48 -397 315 -697 708 -798 l88 -22 1630 0 1630 0 80 22
c189 53 356 170 466 326 174 248 185 594 28 860 -82 138 -229 265 -377 328
-74 30 -200 59 -262 59 l-40 0 0 63 c0 77 -29 196 -66 269 -35 70 -104 157
-154 194 -22 16 -40 32 -40 36 0 4 20 35 44 70 79 114 124 226 147 363 l13 75
261 0 c220 0 264 2 283 16 26 18 30 69 8 100 -14 18 -30 19 -284 22 l-270 3
-6 47 c-53 374 -341 676 -714 749 l-91 18 -3 268 c-3 253 -4 269 -22 283 -31
22 -82 18 -100 -8z m238 -708 c145 -37 290 -129 389 -247 60 -72 131 -215 153
-308 25 -108 16 -295 -20 -400 -28 -83 -86 -187 -133 -242 l-28 -32 -70 19
c-91 24 -218 25 -310 0 -38 -10 -70 -17 -71 -16 0 0 -8 28 -18 61 -98 325
-373 607 -698 714 l-68 23 21 41 c75 147 211 279 357 344 147 65 343 82 496
43z m-946 -554 c346 -86 615 -343 712 -683 l18 -61 -49 -42 c-27 -22 -70 -70
-95 -106 -53 -74 -107 -203 -97 -231 12 -34 36 -53 68 -53 38 0 55 18 80 85
120 328 542 423 785 176 108 -109 147 -221 136 -393 -7 -104 -6 -107 16 -121
16 -10 61 -16 143 -19 191 -7 317 -61 450 -193 182 -180 240 -452 148 -695
-56 -149 -175 -281 -317 -350 -153 -75 -19 -70 -1819 -70 -1795 0 -1683 -4
-1835 66 -460 211 -602 776 -297 1182 89 118 220 210 376 263 87 30 104 33
229 33 160 1 222 -13 355 -79 164 -81 285 -206 364 -376 22 -48 47 -89 56 -93
50 -19 105 11 105 57 0 32 -73 179 -124 252 -61 85 -179 194 -275 253 -68 42
-180 86 -297 117 -16 5 -27 124 -19 209 42 447 358 798 793 881 94 18 299 13
390 -9z"/>
<path d="M3151 3761 c-11 -11 -21 -34 -21 -49 0 -44 31 -65 108 -73 219 -24
377 -182 401 -401 8 -77 29 -108 73 -108 15 0 38 10 49 21 20 20 21 29 16 98
-21 278 -250 507 -528 528 -69 5 -78 4 -98 -16z"/>
<path d="M2155 3129 c-28 -17 -35 -29 -35 -65 0 -46 24 -61 115 -68 44 -3 105
-9 136 -12 51 -6 58 -4 73 17 35 51 10 100 -61 118 -72 19 -204 24 -228 10z"/>
<path d="M1811 3009 c-172 -115 -301 -348 -305 -552 -1 -61 2 -71 23 -88 30
-24 52 -24 83 1 21 16 27 31 32 91 19 185 114 348 259 441 68 44 80 83 39 131
-24 27 -65 20 -131 -24z"/>
<path d="M4043 1661 c-55 -14 -141 -61 -163 -88 -26 -34 -25 -59 5 -88 29 -30
58 -32 95 -5 76 54 183 65 265 26 93 -43 146 -116 160 -221 8 -56 19 -73 52
-86 31 -12 69 7 82 40 16 38 -2 133 -39 208 -40 80 -129 163 -207 194 -63 24
-194 34 -250 20z"/>
<path d="M2473 4460 c-24 -10 -43 -39 -43 -65 0 -20 147 -275 168 -292 39 -32
112 2 112 51 0 27 -147 283 -173 301 -24 17 -33 17 -64 5z"/>
<path d="M3865 4459 c-27 -13 -175 -269 -175 -302 0 -56 77 -89 113 -49 19 21
146 238 158 270 12 30 -12 77 -43 86 -28 7 -28 7 -53 -5z"/>
<path d="M1980 3963 c-46 -17 -65 -70 -37 -106 6 -9 71 -50 142 -92 144 -84
173 -90 208 -44 37 50 17 74 -130 160 -138 81 -159 91 -183 82z"/>
<path d="M4372 3960 c-32 -13 -211 -118 -249 -147 -39 -28 -44 -72 -13 -103
33 -33 68 -24 199 53 144 84 170 111 152 155 -10 23 -50 56 -64 51 -1 0 -12
-4 -25 -9z"/>
<path d="M4110 2690 c-23 -23 -26 -68 -7 -92 19 -24 273 -168 297 -168 26 0
70 42 70 67 0 10 -7 28 -15 40 -19 27 -274 173 -303 173 -12 0 -31 -9 -42 -20z"/>
</g>
</svg>
