<?xml version="1.0" standalone="no"?>
<!DOCTYPE svg PUBLIC "-//W3C//DTD SVG 20010904//EN"
 "http://www.w3.org/TR/2001/REC-SVG-20010904/DTD/svg10.dtd">
<svg version="1.0" xmlns="http://www.w3.org/2000/svg"
 width="512.000000pt" height="512.000000pt" viewBox="0 0 512.000000 512.000000"
 preserveAspectRatio="xMidYMid meet">

<g transform="translate(0.000000,512.000000) scale(0.100000,-0.100000)"
fill="#000000" stroke="none">
<path d="M3005 4585 c-27 -7 -74 -23 -104 -35 -170 -67 -326 -243 -377 -428
-13 -47 -21 -61 -33 -58 -132 37 -364 41 -508 8 -400 -91 -714 -385 -827 -774
-31 -106 -50 -271 -43 -359 l6 -66 -85 -7 c-158 -13 -325 -71 -452 -157 -69
-48 -178 -155 -228 -226 -186 -259 -222 -622 -90 -908 73 -159 184 -289 327
-385 48 -32 96 -61 107 -64 16 -5 20 -19 25 -89 16 -222 147 -402 354 -485
l68 -27 955 -3 c933 -2 956 -2 1021 18 195 59 339 250 339 450 l0 38 398 5
c324 3 408 7 460 20 382 100 627 430 610 821 -18 393 -327 716 -720 753 l-68
6 0 56 c0 31 -3 73 -6 94 l-7 37 96 0 c157 0 261 44 367 155 215 228 143 609
-142 749 -40 20 -96 39 -125 43 -54 6 -63 16 -63 70 0 88 -99 221 -204 276
-57 30 -68 32 -169 33 l-109 1 -24 59 c-72 178 -244 324 -440 374 -91 23 -233
26 -309 5z m286 -141 c78 -23 161 -69 214 -120 57 -55 118 -149 134 -206 12
-43 12 -44 -25 -83 -39 -42 -94 -147 -94 -180 0 -11 7 -31 16 -43 13 -19 24
-22 57 -20 41 3 43 5 72 65 37 77 57 99 117 129 88 44 204 26 272 -42 53 -54
70 -100 69 -190 -2 -105 7 -115 109 -119 157 -7 275 -90 324 -227 25 -70 20
-178 -11 -246 -32 -70 -93 -135 -160 -170 -45 -24 -62 -27 -180 -30 l-130 -3
-30 51 c-45 77 -159 181 -246 224 -151 74 -303 84 -484 31 -17 -5 -22 2 -38
57 -78 267 -300 529 -553 655 l-76 37 5 44 c12 108 122 263 232 328 122 71
282 94 406 58z m-952 -494 c143 -18 313 -83 430 -163 65 -44 175 -152 227
-221 59 -78 110 -179 145 -286 l27 -84 -67 -66 c-76 -74 -130 -157 -160 -247
-24 -73 -17 -104 30 -124 24 -9 33 -9 55 6 15 9 29 26 31 36 17 65 78 166 132
219 103 101 229 147 371 137 183 -13 342 -131 412 -305 20 -49 23 -75 23 -193
0 -100 4 -140 14 -152 11 -14 32 -17 105 -17 199 -1 349 -61 481 -194 55 -55
93 -104 118 -153 174 -334 44 -738 -290 -900 -135 -66 -137 -66 -585 -70
l-407 -5 -27 53 c-56 111 -205 225 -319 244 -72 12 -72 12 -78 66 -14 116 -95
227 -205 281 -63 31 -73 33 -174 33 -74 0 -108 4 -108 11 0 7 -19 49 -42 95
-58 117 -162 220 -278 277 -83 41 -182 72 -227 72 -17 0 -29 12 -49 53 -68
133 -177 262 -290 343 -80 57 -211 119 -302 141 l-71 18 -6 80 c-16 201 54
443 180 620 49 69 169 187 235 232 115 78 265 137 404 158 104 17 162 17 265
5z m-1048 -1245 c134 -35 261 -109 362 -211 57 -59 137 -169 137 -190 0 -6
-25 -16 -56 -23 -31 -7 -93 -32 -138 -54 -200 -102 -337 -318 -348 -546 l-3
-65 -70 -13 c-110 -20 -220 -80 -296 -160 -35 -38 -77 -94 -94 -126 -16 -31
-32 -57 -35 -57 -20 0 -122 72 -180 127 -84 78 -148 172 -189 275 -188 468
108 980 614 1062 56 9 232 -3 296 -19z m761 -565 c150 -46 281 -172 333 -319
l15 -44 -39 -42 c-107 -116 -120 -245 -26 -245 37 0 56 18 80 75 37 90 120
145 220 145 77 0 130 -25 178 -81 45 -52 61 -105 54 -181 -8 -86 10 -103 110
-111 43 -3 100 -13 126 -22 65 -23 149 -102 184 -173 24 -49 28 -69 28 -142 0
-76 -4 -93 -33 -152 -36 -73 -87 -124 -161 -160 l-46 -23 -955 0 -955 0 -66
32 c-80 39 -159 120 -197 200 -24 52 -27 69 -27 168 0 98 3 116 27 167 117
249 439 316 637 132 37 -34 72 -79 96 -124 40 -77 67 -96 110 -80 41 15 52 53
32 106 -24 66 -81 147 -144 204 -52 48 -182 120 -216 120 -24 0 -30 17 -28 85
4 211 166 414 372 469 81 22 214 20 291 -4z"/>
<path d="M2170 3703 c-32 -12 -50 -37 -50 -68 0 -43 26 -65 81 -65 24 -1 78
-7 119 -14 41 -7 82 -11 90 -8 28 10 50 35 50 59 0 42 -18 62 -73 77 -58 17
-194 29 -217 19z"/>
<path d="M1814 3579 c-79 -55 -118 -92 -169 -164 -82 -115 -126 -234 -141
-377 -6 -63 -5 -68 19 -92 15 -14 38 -26 52 -26 43 0 61 29 69 110 18 184 102
329 251 435 34 25 65 55 68 66 12 44 -24 89 -71 89 -10 0 -45 -18 -78 -41z"/>
<path d="M4032 2225 c-95 -27 -172 -83 -172 -126 0 -28 39 -69 66 -69 13 0 50
15 82 33 50 28 66 32 132 32 88 -1 136 -21 192 -83 49 -54 57 -72 72 -150 9
-52 18 -70 39 -86 34 -25 76 -14 95 26 18 38 1 136 -38 214 -81 166 -290 259
-468 209z"/>
</g>
</svg>
