<?xml version="1.0" standalone="no"?>
<!DOCTYPE svg PUBLIC "-//W3C//DTD SVG 20010904//EN"
 "http://www.w3.org/TR/2001/REC-SVG-20010904/DTD/svg10.dtd">
<svg version="1.0" xmlns="http://www.w3.org/2000/svg"
 width="512.000000pt" height="512.000000pt" viewBox="0 0 512.000000 512.000000"
 preserveAspectRatio="xMidYMid meet">

<g transform="translate(0.000000,512.000000) scale(0.100000,-0.100000)"
fill="#000000" stroke="none">
<path d="M2019 4074 c-345 -62 -646 -294 -799 -617 -75 -158 -118 -363 -107
-519 l5 -78 -57 0 c-119 0 -256 -37 -386 -103 -269 -139 -451 -407 -486 -714
-50 -440 221 -843 658 -980 l88 -28 1640 -3 c1801 -3 1711 -6 1863 57 461 190
636 756 362 1174 -70 108 -189 214 -302 271 -103 52 -224 86 -303 86 l-52 0
-6 93 c-7 117 -38 210 -101 306 -156 234 -427 324 -725 240 -9 -3 -22 21 -41
76 -133 389 -459 671 -857 740 -105 18 -291 18 -394 -1z m446 -153 c112 -30
266 -108 361 -184 147 -117 274 -307 322 -482 l20 -71 -58 -52 c-94 -84 -182
-235 -183 -314 -1 -57 61 -87 109 -54 11 8 26 34 33 58 18 60 57 124 109 180
188 201 506 201 695 -1 94 -101 133 -220 123 -378 -9 -138 -4 -143 134 -143
129 0 186 -12 295 -65 406 -195 498 -731 180 -1049 -80 -80 -150 -125 -257
-164 l-73 -27 -1655 0 c-1860 0 -1699 -7 -1865 76 -198 97 -345 277 -406 495
-32 111 -32 286 0 398 81 291 304 501 594 563 110 23 289 14 392 -21 212 -72
360 -201 461 -401 25 -49 53 -98 61 -107 41 -45 122 2 109 63 -11 56 -74 175
-136 258 -119 158 -283 270 -476 326 -48 14 -90 28 -93 31 -3 3 -5 65 -5 137
1 107 7 151 28 231 93 356 376 629 734 707 118 26 331 21 447 -10z"/>
<path d="M2142 3684 c-27 -19 -31 -84 -5 -105 9 -8 52 -17 97 -21 45 -3 104
-9 132 -13 45 -7 54 -5 73 14 27 27 27 72 1 96 -44 40 -254 60 -298 29z"/>
<path d="M1820 3579 c-133 -91 -239 -235 -285 -389 -22 -70 -37 -182 -30 -217
11 -58 86 -77 122 -32 6 8 13 43 17 79 20 192 103 330 279 463 43 32 50 74 17
107 -28 28 -68 24 -120 -11z"/>
<path d="M3997 2207 c-85 -33 -127 -70 -127 -111 0 -38 26 -66 61 -66 13 0 51
14 83 30 48 24 71 30 125 30 144 0 246 -95 267 -247 4 -30 14 -59 24 -68 26
-24 79 -16 102 16 17 23 18 32 8 93 -22 136 -108 253 -230 310 -56 26 -79 31
-160 33 -80 3 -104 -1 -153 -20z"/>
</g>
</svg>
