<?xml version="1.0" standalone="no"?>
<!DOCTYPE svg PUBLIC "-//W3C//DTD SVG 20010904//EN"
 "http://www.w3.org/TR/2001/REC-SVG-20010904/DTD/svg10.dtd">
<svg version="1.0" xmlns="http://www.w3.org/2000/svg"
 width="512.000000pt" height="512.000000pt" viewBox="0 0 512.000000 512.000000"
 preserveAspectRatio="xMidYMid meet">

<g transform="translate(0.000000,512.000000) scale(0.100000,-0.100000)"
fill="#000000" stroke="none">
<path d="M2048 4924 c-421 -65 -773 -375 -892 -785 -31 -109 -50 -262 -43
-354 l5 -72 -85 -7 c-229 -19 -436 -117 -594 -282 -81 -86 -120 -143 -170
-248 -59 -127 -83 -236 -83 -386 0 -154 25 -265 88 -395 121 -249 342 -429
601 -491 39 -9 77 -20 87 -23 14 -5 6 -40 -63 -286 -43 -154 -79 -290 -79
-301 0 -12 8 -32 18 -45 22 -26 75 -30 98 -7 12 12 79 238 175 591 l10 37 195
0 c181 0 195 -1 190 -17 -29 -92 -66 -239 -66 -261 0 -33 8 -45 37 -61 31 -16
71 -4 87 28 7 14 30 90 52 169 l39 142 193 0 c179 0 193 -1 188 -17 -3 -10
-39 -140 -81 -290 -66 -236 -74 -275 -63 -297 18 -40 75 -50 109 -20 9 8 52
145 100 319 l84 305 193 0 c105 0 192 -3 192 -7 0 -5 -16 -64 -35 -132 -19
-69 -35 -135 -35 -147 0 -25 43 -64 70 -64 42 0 60 33 104 190 l43 155 191 3
c133 2 192 -1 192 -8 0 -6 -34 -132 -75 -279 -41 -148 -75 -280 -75 -293 0
-51 68 -79 113 -45 11 8 47 120 101 316 47 167 87 305 89 307 2 3 90 3 194 2
l190 -3 -39 -138 c-33 -121 -37 -142 -26 -165 19 -40 61 -51 96 -26 23 18 34
45 71 177 l45 157 192 0 193 0 -20 -72 c-11 -40 -47 -170 -80 -288 -36 -129
-58 -224 -54 -238 6 -26 57 -52 87 -44 11 2 25 14 33 26 8 11 53 161 100 331
48 171 87 310 88 310 1 0 34 11 72 23 246 82 434 280 511 537 21 74 27 111 27
205 2 226 -65 398 -217 558 -142 150 -304 230 -504 248 l-72 7 0 62 c0 80 -31
200 -72 278 -48 92 -174 215 -268 261 -136 66 -283 82 -425 46 -43 -11 -79
-19 -80 -18 0 2 -9 30 -19 63 -79 263 -282 507 -536 644 -204 109 -458 152
-692 115z m291 -134 c143 -18 313 -83 430 -163 65 -44 175 -152 227 -221 59
-78 110 -179 145 -286 l27 -85 -67 -65 c-76 -74 -130 -157 -160 -247 -25 -73
-17 -104 31 -124 25 -10 33 -9 55 7 14 11 34 43 45 72 48 129 159 243 285 293
48 19 77 23 168 23 97 0 117 -3 173 -26 127 -54 224 -152 274 -276 20 -49 23
-75 23 -193 0 -94 4 -141 13 -151 9 -12 42 -17 135 -20 97 -4 138 -11 202 -32
174 -59 301 -170 383 -332 47 -94 66 -175 66 -294 1 -187 -60 -328 -198 -465
-59 -59 -101 -90 -156 -117 -160 -79 -8 -72 -1770 -76 -1110 -2 -1600 0 -1660
8 -187 25 -327 94 -460 229 -96 98 -141 167 -181 281 -91 256 -45 530 125 747
96 123 253 224 416 269 91 25 290 25 380 -1 147 -41 264 -110 366 -217 75 -77
115 -136 160 -234 38 -84 65 -104 112 -82 45 22 50 57 18 131 -63 150 -169
284 -299 383 -80 60 -222 129 -314 150 l-72 17 -6 73 c-18 190 51 441 168 614
79 115 232 248 362 312 179 89 362 122 554 98z"/>
<path d="M2170 4543 c-32 -12 -50 -37 -50 -68 0 -48 23 -60 145 -74 144 -17
156 -17 177 9 39 48 17 94 -55 114 -58 17 -194 29 -217 19z"/>
<path d="M1835 4433 c-194 -129 -307 -319 -331 -555 -6 -63 -5 -68 19 -92 15
-14 38 -26 52 -26 43 0 61 29 69 110 19 185 102 329 252 436 60 43 64 48 64
84 0 29 -6 43 -22 54 -32 23 -58 20 -103 -11z"/>
<path d="M4031 3065 c-53 -15 -108 -43 -143 -73 -22 -19 -23 -75 -2 -96 30
-31 59 -29 120 6 53 29 67 33 134 33 89 -1 136 -21 194 -85 43 -48 61 -85 71
-150 10 -70 14 -77 46 -90 38 -16 75 -1 89 36 15 38 -4 138 -40 210 -82 166
-290 259 -469 209z"/>
<path d="M1383 1368 c-21 -24 -173 -551 -173 -601 0 -53 78 -83 117 -44 11 11
173 572 173 601 0 7 -9 25 -21 40 -26 33 -68 35 -96 4z"/>
<path d="M2451 1373 c-30 -25 -187 -586 -174 -623 18 -52 96 -60 122 -12 16
30 161 559 161 587 0 54 -66 83 -109 48z"/>
<path d="M3512 1372 c-22 -22 -175 -568 -170 -607 2 -16 15 -37 30 -48 23 -17
31 -18 57 -8 16 7 34 25 40 39 14 37 161 565 161 581 0 21 -48 61 -75 61 -14
0 -33 -8 -43 -18z"/>
<path d="M766 1071 c-9 -10 -35 -82 -57 -159 -43 -157 -42 -180 13 -203 25
-10 33 -9 56 8 22 16 34 44 64 149 20 71 37 141 37 157 2 57 -75 90 -113 48z"/>
<path d="M1836 1077 c-19 -14 -95 -259 -96 -309 0 -55 77 -84 118 -44 7 7 31
79 54 160 l41 147 -20 27 c-23 31 -68 40 -97 19z"/>
<path d="M2895 1071 c-23 -27 -96 -288 -88 -319 3 -14 20 -30 39 -40 32 -15
36 -15 62 5 22 16 34 43 64 149 20 71 37 141 37 157 2 57 -75 90 -114 48z"/>
<path d="M3957 1073 c-20 -23 -89 -274 -85 -309 2 -15 15 -36 30 -47 23 -17
31 -18 57 -8 16 7 34 25 40 39 25 61 79 275 74 290 -12 33 -36 52 -68 52 -18
0 -39 -8 -48 -17z"/>
<path d="M1152 546 c-10 -13 -36 -87 -57 -165 -36 -134 -37 -141 -21 -165 23
-36 61 -43 94 -19 22 16 34 44 64 149 20 71 37 141 37 157 2 61 -79 91 -117
43z"/>
<path d="M2222 553 c-14 -12 -33 -61 -56 -147 -47 -169 -47 -190 1 -215 29
-15 71 -4 85 22 18 35 78 258 78 293 0 56 -65 84 -108 47z"/>
<path d="M3283 548 c-25 -28 -97 -282 -88 -315 13 -54 89 -67 119 -20 16 24
86 266 86 295 0 26 -42 62 -71 62 -14 0 -35 -10 -46 -22z"/>
</g>
</svg>
