<?xml version="1.0" standalone="no"?>
<!DOCTYPE svg PUBLIC "-//W3C//DTD SVG 20010904//EN"
 "http://www.w3.org/TR/2001/REC-SVG-20010904/DTD/svg10.dtd">
<svg version="1.0" xmlns="http://www.w3.org/2000/svg"
 width="512.000000pt" height="512.000000pt" viewBox="0 0 512.000000 512.000000"
 preserveAspectRatio="xMidYMid meet">

<g transform="translate(0.000000,512.000000) scale(0.100000,-0.100000)"
fill="#000000" stroke="none">
<path d="M2555 5033 c-357 -46 -674 -230 -882 -510 -68 -91 -149 -242 -137
-252 13 -11 135 -63 139 -59 1 1 19 35 38 74 122 243 373 455 640 539 162 52
385 69 563 44 414 -57 764 -344 904 -739 13 -36 25 -67 26 -68 1 -2 18 1 36 6
18 6 52 16 75 22 l42 11 -31 87 c-64 183 -158 331 -298 473 -198 199 -439 321
-720 364 -86 14 -318 18 -395 8z"/>
<path d="M2466 4550 c-63 -16 -153 -70 -197 -117 -22 -24 -55 -74 -72 -111
-30 -63 -32 -74 -32 -177 1 -90 5 -120 24 -168 42 -107 159 -209 271 -236 50
-13 1202 -142 1208 -136 5 5 23 148 19 152 -2 2 -269 32 -593 68 -536 60 -594
68 -642 91 -109 53 -159 185 -120 318 26 86 136 166 228 166 63 0 114 -23 165
-75 57 -56 75 -102 75 -189 l0 -56 81 0 82 0 -5 91 c-5 78 -11 100 -42 163
-66 134 -187 215 -334 222 -42 2 -94 -1 -116 -6z"/>
<path d="M1133 4066 c-233 -57 -413 -281 -413 -515 0 -265 193 -492 455 -532
95 -15 808 -60 816 -51 4 4 9 39 11 79 l3 72 -70 6 c-38 3 -207 14 -375 25
-168 11 -329 22 -357 26 -115 12 -237 106 -291 222 -23 48 -27 70 -27 147 0
77 4 98 28 150 37 79 114 156 191 192 58 26 69 28 239 31 l177 4 0 79 0 79
-167 -1 c-98 0 -190 -6 -220 -13z"/>
<path d="M3927 3728 c-15 -86 -19 -128 -11 -128 5 0 63 -9 129 -19 141 -21
201 -48 264 -116 64 -70 86 -124 86 -220 0 -71 -4 -88 -33 -147 -18 -36 -49
-81 -69 -99 -83 -72 -80 -72 -854 -169 -393 -49 -730 -94 -749 -101 -201 -69
-274 -319 -142 -486 58 -73 119 -101 280 -129 75 -13 151 -26 168 -29 l31 -5
12 76 c7 41 11 78 8 80 -2 3 -71 16 -153 30 -156 26 -193 41 -228 87 -29 39
-29 125 0 163 47 64 20 58 781 154 391 49 730 94 754 100 115 31 248 139 303
248 97 192 63 413 -88 568 -87 88 -169 126 -318 148 -62 9 -125 19 -139 22
-24 4 -27 1 -32 -28z"/>
<path d="M2487 3408 c-16 -91 -19 -128 -10 -128 12 0 485 -67 524 -74 26 -5
27 -4 38 71 6 42 9 78 7 80 -3 4 -520 81 -547 83 -4 0 -9 -15 -12 -32z"/>
<path d="M674 2789 c-140 -23 -265 -91 -380 -204 -90 -89 -142 -173 -182 -293
-22 -67 -26 -94 -25 -212 0 -119 3 -144 26 -215 38 -115 91 -199 182 -290 91
-91 174 -144 290 -182 l80 -27 765 -7 c641 -5 781 -8 862 -22 120 -20 266 -57
382 -97 50 -16 93 -27 97 -23 9 9 60 135 56 138 -13 11 -226 78 -312 99 -250
59 -249 59 -1070 66 -749 6 -761 6 -818 28 -152 56 -263 155 -328 288 -190
393 116 834 555 801 215 -17 398 -114 540 -288 l64 -79 59 47 c32 26 60 48 62
49 7 6 -101 134 -163 191 -195 183 -488 275 -742 232z"/>
<path d="M3845 2471 c-90 -22 -173 -90 -215 -176 -19 -41 -24 -66 -24 -135 -1
-78 2 -90 33 -148 19 -35 48 -74 64 -88 45 -38 117 -71 170 -79 l47 -7 0 79 0
79 -44 12 c-141 37 -154 242 -19 298 110 46 376 -32 510 -151 l53 -47 55 47
c30 26 55 54 55 61 0 20 -143 130 -219 168 -155 78 -352 114 -466 87z"/>
<path d="M763 2366 c-102 -38 -158 -90 -188 -177 -33 -93 -8 -197 65 -269 80
-81 73 -80 677 -80 l523 0 0 80 0 79 -530 3 -530 3 -26 26 c-15 16 -28 41 -31
65 -7 57 28 96 112 124 36 12 65 24 65 27 0 3 -9 37 -20 74 -24 79 -24 79
-117 45z"/>
<path d="M2000 1920 l0 -80 160 0 160 0 0 80 0 80 -160 0 -160 0 0 -80z"/>
<path d="M2726 1880 c-3 -22 -9 -58 -12 -80 -3 -23 -2 -40 4 -40 5 0 77 -9
158 -20 172 -23 247 -52 309 -121 64 -71 90 -140 90 -239 0 -71 -4 -94 -26
-141 -32 -68 -91 -130 -156 -162 -29 -15 -159 -49 -328 -87 -154 -34 -315 -75
-359 -91 -311 -113 -531 -405 -562 -744 l-7 -75 80 0 80 0 7 71 c26 256 195
487 434 591 26 11 184 51 352 89 361 81 413 102 508 203 191 205 188 510 -8
706 -97 97 -194 136 -400 159 -52 7 -109 14 -127 17 -30 4 -31 3 -37 -36z"/>
<path d="M4880 1633 c-1 -271 -209 -522 -480 -579 -98 -21 -179 -14 -229 19
-137 91 -110 294 47 353 23 9 42 19 42 21 0 3 -9 36 -21 74 -25 81 -29 82
-116 39 -73 -37 -135 -101 -171 -178 -23 -48 -27 -71 -27 -142 0 -72 4 -94 28
-145 36 -78 104 -146 181 -182 55 -25 71 -28 166 -27 125 1 203 19 316 75 244
119 401 357 421 635 l6 84 -82 0 -81 0 0 -47z"/>
<path d="M3380 695 c-45 -46 -97 -87 -130 -103 -54 -27 -59 -27 -305 -33 -270
-6 -291 -9 -398 -72 -57 -34 -139 -122 -171 -185 -29 -57 -56 -151 -56 -194
l0 -28 79 0 79 0 7 47 c15 103 84 196 180 243 48 23 62 24 300 30 268 7 299
12 394 67 50 29 211 180 211 197 0 14 -92 106 -106 106 -5 0 -43 -34 -84 -75z"/>
</g>
</svg>
