<?xml version="1.0" standalone="no"?>
<!DOCTYPE svg PUBLIC "-//W3C//DTD SVG 20010904//EN"
 "http://www.w3.org/TR/2001/REC-SVG-20010904/DTD/svg10.dtd">
<svg version="1.0" xmlns="http://www.w3.org/2000/svg"
 width="512.000000pt" height="512.000000pt" viewBox="0 0 512.000000 512.000000"
 preserveAspectRatio="xMidYMid meet">

<g transform="translate(0.000000,512.000000) scale(0.100000,-0.100000)"
fill="#000000" stroke="none">
<path d="M1652 4930 c-31 -13 -42 -48 -42 -132 l0 -70 -51 46 c-57 52 -96 59
-129 26 -40 -40 -28 -68 80 -175 l100 -100 0 -79 0 -80 -123 122 c-105 103
-129 122 -155 122 -40 0 -76 -43 -67 -80 4 -14 78 -97 176 -195 l169 -170 0
-58 c0 -35 -4 -57 -11 -57 -6 0 -27 -7 -46 -17 l-35 -16 -296 296 c-245 245
-302 297 -325 297 -37 0 -67 -32 -67 -72 0 -28 32 -64 293 -327 l293 -296 -15
-42 -15 -43 -61 0 -60 0 -170 170 c-149 149 -174 170 -202 170 -22 0 -37 -7
-47 -22 -33 -47 -23 -66 106 -195 l123 -123 -80 0 -79 0 -101 100 c-110 107
-136 119 -175 80 -34 -34 -26 -75 26 -130 l47 -50 -65 0 c-36 0 -79 -5 -97
-11 -52 -18 -68 -72 -31 -109 17 -17 33 -20 105 -20 47 0 85 -3 85 -6 0 -4
-20 -29 -45 -55 -51 -54 -59 -95 -25 -129 40 -40 65 -28 180 85 l106 105 72 0
c40 0 72 -3 72 -8 0 -4 -54 -61 -120 -127 -102 -102 -120 -124 -120 -151 0
-38 27 -64 65 -64 24 0 59 29 206 176 l176 175 53 -3 c52 -3 53 -3 70 -48 l17
-45 -293 -295 c-263 -264 -294 -299 -294 -328 0 -40 30 -72 67 -72 23 0 80 52
324 296 l297 297 46 -19 46 -19 0 -55 0 -55 -169 -170 c-98 -98 -172 -181
-176 -195 -9 -37 27 -80 67 -80 26 0 50 19 155 122 l123 122 0 -80 0 -79 -100
-100 c-108 -107 -120 -135 -80 -175 33 -33 72 -26 128 25 l50 45 3 -85 c4 -90
13 -109 59 -120 18 -4 34 0 53 15 26 21 27 25 27 112 l0 91 54 -52 c60 -56 89
-63 127 -33 15 13 22 30 22 51 0 28 -15 47 -101 134 l-102 102 0 73 c0 39 3
72 8 72 4 0 61 -54 127 -120 126 -127 146 -137 193 -104 15 10 22 25 22 47 0
27 -22 54 -175 207 l-175 176 0 52 0 51 47 21 47 21 296 -296 c262 -261 300
-295 328 -295 38 0 72 33 72 69 0 20 -65 90 -297 322 l-296 298 20 48 c19 47
20 48 68 51 l48 3 177 -175 c163 -163 179 -176 213 -176 26 0 40 6 51 22 32
46 22 65 -104 193 -66 66 -120 124 -120 128 0 4 32 7 71 7 l71 0 108 -105
c116 -113 134 -122 175 -80 38 37 32 66 -26 129 l-51 56 89 0 c100 0 126 14
126 66 0 49 -34 68 -123 72 l-80 4 45 50 c52 57 57 87 20 123 -41 42 -60 33
-170 -75 l-101 -100 -79 0 -79 0 122 123 c128 130 139 149 106 195 -11 16 -25
22 -51 22 -34 0 -49 -13 -208 -170 l-171 -170 -54 0 -55 0 -19 46 -19 46 297
297 c231 232 296 302 296 322 0 36 -34 69 -72 69 -28 0 -66 -34 -328 -295
l-296 -296 -47 21 -47 21 0 51 0 52 175 176 c153 153 175 180 175 207 0 22 -7
37 -22 47 -47 33 -67 23 -193 -104 -66 -66 -123 -120 -127 -120 -5 0 -8 33 -8
72 l0 73 102 102 c86 87 101 106 101 134 0 21 -7 38 -22 51 -38 30 -67 23
-127 -33 l-54 -52 0 91 c0 86 -1 92 -26 111 -29 23 -38 24 -72 11z m118 -1032
c58 -40 75 -72 75 -143 0 -49 -5 -70 -21 -92 -73 -98 -205 -99 -277 -2 -78
106 4 259 138 259 38 0 61 -6 85 -22z"/>
<path d="M3190 4811 c-83 -26 -159 -90 -201 -171 -34 -64 -34 -194 0 -263 55
-111 162 -177 289 -177 121 0 220 63 273 175 24 50 29 73 29 136 0 65 -5 85
-31 137 -36 73 -92 124 -166 152 -55 20 -145 25 -193 11z m184 -165 c48 -36
66 -74 66 -139 0 -63 -25 -107 -80 -145 -29 -20 -45 -23 -95 -20 -74 5 -119
33 -146 92 -38 83 -11 175 64 221 57 35 138 32 191 -9z"/>
<path d="M3829 3921 c-21 -17 -24 -30 -27 -101 l-4 -81 -58 56 c-65 61 -89 67
-125 30 -42 -41 -33 -59 80 -175 l105 -106 0 -77 c0 -55 -4 -77 -13 -77 -7 0
-91 79 -187 175 -151 152 -179 175 -206 175 -38 0 -64 -27 -64 -66 0 -25 28
-57 175 -204 96 -96 175 -180 175 -187 0 -9 -22 -13 -77 -13 l-77 0 -106 105
c-65 63 -115 105 -127 105 -11 0 -32 -9 -47 -21 -42 -33 -35 -70 24 -133 l50
-53 -77 -5 c-64 -4 -80 -9 -95 -28 -22 -27 -23 -58 -2 -88 14 -20 24 -22 101
-22 l86 0 -56 -59 c-62 -65 -70 -93 -39 -132 13 -15 30 -22 51 -22 28 0 48 15
139 106 l107 107 67 0 c38 0 70 -5 74 -11 3 -6 -69 -87 -170 -188 -163 -164
-176 -180 -176 -214 0 -26 6 -40 22 -51 49 -35 64 -25 248 159 96 96 180 175
187 175 9 0 13 -22 13 -77 l0 -77 -105 -106 c-113 -116 -122 -134 -80 -175 36
-37 60 -31 125 30 l58 56 4 -81 c3 -71 6 -84 27 -101 30 -25 66 -24 91 1 17
17 20 33 20 101 l0 81 61 -56 c37 -35 69 -56 83 -56 31 0 64 28 72 63 6 25 -4
38 -105 140 l-111 113 0 67 c0 53 4 69 16 74 11 4 67 -45 193 -171 188 -188
207 -200 251 -156 44 44 32 63 -156 251 -126 126 -175 182 -171 193 5 12 21
16 73 16 l67 0 106 -104 c58 -57 113 -106 121 -107 32 -7 68 11 80 40 14 36 7
51 -54 111 -25 24 -46 48 -46 52 0 4 36 8 80 8 67 0 83 3 100 20 25 25 26 61
2 90 -16 20 -31 24 -101 28 l-82 5 57 59 c48 51 55 62 49 86 -8 34 -23 49 -58
58 -25 6 -37 -3 -135 -100 l-108 -106 -77 0 c-54 0 -77 4 -77 12 0 7 79 91
175 188 140 141 175 182 175 203 0 36 -33 67 -71 67 -28 0 -55 -23 -210 -176
-99 -99 -182 -173 -188 -170 -6 4 -11 37 -11 74 l0 67 107 107 c91 91 106 111
106 139 0 21 -7 38 -22 51 -39 31 -67 23 -132 -39 l-59 -56 0 81 c0 69 -3 85
-20 102 -25 25 -61 26 -91 1z m96 -676 c14 -13 25 -36 25 -50 0 -14 -11 -37
-25 -50 -13 -14 -36 -25 -50 -25 -14 0 -37 11 -50 25 -14 13 -25 36 -25 50 0
14 11 37 25 50 13 14 36 25 50 25 14 0 37 -11 50 -25z"/>
<path d="M2757 2530 c-26 -21 -27 -25 -27 -112 l0 -91 -54 52 c-65 60 -102 67
-135 25 -12 -15 -21 -36 -21 -47 0 -12 42 -62 105 -127 l105 -106 0 -72 c0
-40 -3 -72 -8 -72 -4 0 -61 54 -127 120 -126 127 -146 137 -193 104 -16 -11
-22 -25 -22 -51 0 -33 14 -50 175 -212 l175 -177 0 -47 c0 -45 -1 -46 -47 -67
l-47 -21 -296 296 c-279 278 -298 295 -333 295 -26 0 -40 -6 -51 -22 -36 -51
-32 -57 281 -370 l296 -296 -21 -49 c-20 -47 -22 -48 -68 -51 l-48 -3 -170
169 c-94 94 -181 175 -193 181 -40 20 -93 -15 -93 -62 0 -25 20 -51 120 -152
66 -66 120 -124 120 -128 0 -4 -32 -7 -72 -7 l-72 0 -106 105 c-65 63 -115
105 -127 105 -11 0 -32 -9 -47 -21 -41 -33 -35 -68 25 -133 l51 -56 -88 0
c-96 0 -105 -3 -123 -38 -10 -19 -10 -30 -1 -52 15 -36 53 -50 137 -50 l65 0
-46 -51 c-55 -61 -60 -96 -20 -128 15 -12 36 -21 47 -21 12 0 61 40 122 100
l101 100 79 0 79 0 -122 -123 c-95 -96 -122 -130 -122 -150 0 -37 33 -67 72
-67 28 0 53 21 203 170 l171 170 54 0 55 0 19 -46 19 -46 -297 -297 c-244
-244 -296 -301 -296 -324 0 -37 32 -67 72 -67 28 0 64 32 328 295 l296 296 47
-21 c46 -21 47 -22 47 -67 l0 -47 -175 -177 c-159 -160 -175 -179 -175 -211 0
-42 25 -68 66 -68 24 0 50 21 149 120 66 66 123 120 127 120 5 0 8 -32 8 -72
l0 -72 -105 -106 c-63 -65 -105 -115 -105 -127 0 -11 9 -32 21 -47 33 -42 70
-35 135 25 l54 52 0 -89 c0 -49 4 -94 8 -100 13 -21 52 -34 77 -28 38 9 55 52
55 134 l0 72 51 -46 c59 -53 93 -59 127 -23 39 41 29 62 -78 172 l-100 101 0
79 0 79 123 -122 c130 -128 149 -139 195 -106 16 11 22 25 22 51 0 34 -13 49
-170 208 l-170 171 0 57 c0 35 4 57 11 57 6 0 27 7 46 17 l35 16 296 -296
c245 -245 302 -297 325 -297 37 0 67 32 67 72 0 28 -32 64 -293 327 l-293 296
15 43 15 42 55 0 55 0 172 -170 c156 -154 175 -170 206 -170 42 0 68 25 68 66
0 23 -22 51 -122 151 l-123 123 80 0 79 0 101 -100 c56 -55 110 -100 119 -100
21 0 58 19 68 34 20 29 7 68 -38 116 l-47 50 65 0 c36 0 79 5 97 11 52 18 68
72 31 109 -17 17 -33 20 -105 20 -47 0 -85 3 -85 6 0 4 20 29 45 55 44 47 57
86 37 115 -10 15 -47 34 -68 34 -9 0 -65 -47 -124 -105 l-106 -105 -72 0 c-40
0 -72 3 -72 8 0 4 54 61 120 127 102 102 120 124 120 151 0 39 -27 64 -70 64
-29 0 -52 -19 -210 -176 l-177 -175 -48 3 c-46 3 -48 4 -65 48 l-17 45 294
296 c276 278 293 298 293 332 0 26 -6 40 -22 51 -51 36 -57 32 -370 -281
l-296 -296 -35 16 c-19 10 -40 17 -46 17 -7 0 -11 22 -11 57 l0 58 169 170
c98 98 172 181 176 195 9 38 -27 80 -68 80 -27 0 -49 -18 -154 -122 l-123
-123 0 80 0 79 100 101 c107 109 118 132 80 173 -33 35 -71 28 -128 -23 l-50
-45 -3 85 c-4 90 -13 109 -59 120 -18 4 -34 0 -53 -15z m124 -1023 c53 -36 79
-82 79 -142 0 -165 -204 -227 -304 -92 -16 22 -21 43 -21 92 0 71 17 103 75
143 46 31 124 31 171 -1z"/>
<path d="M1007 2336 c-260 -97 -279 -456 -31 -577 115 -56 261 -31 354 61 67
68 93 140 88 240 -7 117 -59 200 -160 255 -43 24 -67 29 -133 32 -52 2 -93 -2
-118 -11z m208 -160 c20 -16 44 -45 52 -65 21 -49 13 -129 -16 -170 -49 -69
-151 -91 -226 -48 -115 65 -111 241 7 301 51 26 136 17 183 -18z"/>
<path d="M4284 2169 c-146 -42 -227 -213 -167 -349 79 -179 325 -208 438 -51
79 109 70 237 -25 331 -68 69 -160 94 -246 69z m117 -144 c36 -19 69 -70 69
-106 0 -14 -10 -41 -23 -60 -64 -95 -210 -53 -210 60 0 49 24 88 66 106 42 18
62 18 98 0z"/>
<path d="M1305 871 c-85 -40 -135 -120 -135 -218 1 -239 327 -316 434 -102 79
160 -30 340 -206 339 -30 0 -70 -8 -93 -19z m159 -147 c47 -48 32 -124 -30
-150 -29 -12 -39 -12 -68 0 -41 17 -56 42 -56 91 0 77 98 115 154 59z"/>
</g>
</svg>
