<?xml version="1.0" standalone="no"?>
<!DOCTYPE svg PUBLIC "-//W3C//DTD SVG 20010904//EN"
 "http://www.w3.org/TR/2001/REC-SVG-20010904/DTD/svg10.dtd">
<svg version="1.0" xmlns="http://www.w3.org/2000/svg"
 width="512.000000pt" height="512.000000pt" viewBox="0 0 512.000000 512.000000"
 preserveAspectRatio="xMidYMid meet">

<g transform="translate(0.000000,512.000000) scale(0.100000,-0.100000)"
fill="#000000" stroke="none">
<path d="M2048 4924 c-421 -65 -773 -375 -892 -785 -31 -109 -50 -262 -43
-354 l5 -72 -85 -7 c-229 -19 -436 -117 -594 -282 -170 -179 -252 -384 -252
-634 0 -81 6 -149 16 -192 79 -326 306 -578 609 -677 65 -22 66 -23 58 -49
-49 -149 -190 -691 -185 -710 10 -40 58 -52 210 -52 74 0 135 -1 135 -3 0 -2
-29 -108 -65 -235 -36 -128 -65 -240 -65 -250 0 -36 29 -62 69 -62 l38 0 304
387 c170 218 305 399 307 413 2 16 -4 36 -16 50 -20 24 -24 25 -176 28 -155 3
-156 4 -150 25 3 12 29 108 58 212 l53 190 266 3 c212 2 266 0 262 -10 -24
-70 -155 -562 -155 -582 0 -14 9 -35 20 -46 19 -19 33 -20 331 -20 291 0 310
-1 305 -17 -72 -242 -256 -932 -254 -951 4 -34 49 -66 81 -58 17 4 178 203
568 701 580 741 577 737 528 781 -20 18 -40 19 -331 22 -279 3 -309 5 -304 19
4 9 14 44 22 78 9 34 19 67 23 73 6 9 119 12 473 10 l465 -3 -96 -343 c-121
-437 -129 -409 122 -411 127 -1 138 -2 133 -18 -32 -106 -126 -456 -126 -470
0 -10 7 -29 16 -41 17 -25 70 -30 96 -10 31 25 598 760 604 783 8 30 -11 64
-42 75 -14 6 -88 10 -165 10 -76 0 -139 2 -139 5 0 5 63 233 105 380 l14 50
83 16 c166 32 284 96 408 219 159 159 233 335 234 555 0 222 -67 394 -218 553
-142 150 -304 230 -504 248 l-72 7 0 62 c0 80 -31 200 -72 278 -48 92 -174
215 -268 261 -136 66 -283 82 -425 46 -43 -11 -79 -19 -80 -18 0 2 -9 30 -19
63 -79 263 -282 507 -536 644 -204 109 -458 152 -692 115z m402 -155 c103 -25
250 -93 334 -153 68 -48 186 -169 233 -237 47 -68 94 -166 124 -259 l27 -85
-67 -65 c-76 -74 -130 -157 -160 -247 -25 -73 -17 -104 31 -124 25 -10 33 -9
55 7 14 11 34 43 45 72 48 129 159 243 285 293 83 33 252 33 334 1 124 -49
231 -156 281 -280 20 -49 23 -75 23 -193 0 -94 4 -141 13 -151 9 -12 42 -17
135 -20 199 -8 337 -67 468 -199 121 -123 182 -276 183 -459 1 -187 -60 -328
-198 -465 -59 -59 -101 -90 -156 -117 -153 -75 -112 -72 -923 -76 -698 -3
-728 -2 -723 15 35 116 176 637 176 653 0 11 -9 29 -20 40 -19 19 -33 20 -393
20 -345 0 -375 -1 -390 -18 -12 -13 -207 -680 -207 -707 0 -10 -882 -5 -957 6
-182 25 -321 95 -453 228 -96 97 -141 167 -181 281 -134 378 41 798 401 964
120 55 189 70 325 70 228 0 406 -74 561 -236 75 -77 115 -136 160 -234 38 -84
65 -104 112 -82 45 22 50 57 18 131 -62 147 -165 280 -291 377 -78 61 -231
135 -319 156 l-74 17 -7 69 c-20 198 53 455 179 632 60 84 198 212 282 262
116 68 242 114 369 134 90 14 267 4 365 -21z m355 -2181 c-21 -59 -265 -958
-265 -977 0 -13 7 -33 17 -43 14 -16 36 -18 217 -19 111 -1 239 -4 284 -7 l84
-7 -367 -470 c-202 -259 -371 -474 -376 -479 -9 -10 -7 -2 107 405 41 147 74
278 74 293 0 14 -9 35 -20 46 -19 19 -33 20 -331 20 -291 0 -310 1 -305 18 3
9 80 285 171 612 91 327 167 601 170 608 3 9 68 12 274 12 212 0 269 -3 266
-12z m-1567 -723 c2 -2 -26 -108 -62 -237 -36 -129 -66 -247 -66 -263 0 -57
19 -65 162 -65 71 0 128 -4 126 -9 -7 -20 -253 -328 -256 -321 -2 5 8 48 22
96 30 103 32 140 9 166 -14 16 -34 18 -170 18 -130 0 -153 2 -153 15 0 12 151
564 164 600 3 9 214 9 224 0z m2822 1 c0 -3 -29 -110 -65 -238 -36 -128 -65
-246 -65 -262 0 -58 19 -66 162 -66 70 0 128 -2 128 -5 0 -3 -58 -80 -130
-171 -71 -91 -130 -161 -130 -154 0 6 11 51 25 100 29 104 31 137 8 162 -14
16 -34 18 -170 18 -135 0 -153 2 -153 16 0 9 37 149 82 310 l81 294 114 0 c62
0 113 -2 113 -4z"/>
<path d="M2170 4543 c-32 -12 -50 -37 -50 -68 0 -48 23 -60 145 -74 144 -17
156 -17 177 9 39 48 17 94 -55 114 -58 17 -194 29 -217 19z"/>
<path d="M1835 4433 c-194 -129 -307 -319 -331 -555 -6 -63 -5 -68 19 -92 15
-14 38 -26 52 -26 43 0 61 29 69 110 19 185 102 329 252 436 60 43 64 48 64
84 0 29 -6 43 -22 54 -32 23 -58 20 -103 -11z"/>
<path d="M4032 3065 c-95 -27 -172 -83 -172 -126 0 -28 39 -69 66 -69 13 0 50
15 82 33 50 28 66 32 132 32 88 -1 136 -21 192 -83 49 -54 57 -72 72 -150 9
-52 18 -70 39 -86 34 -25 76 -14 95 26 18 38 1 136 -38 214 -81 166 -290 259
-468 209z"/>
</g>
</svg>
