<?xml version="1.0" standalone="no"?>
<!DOCTYPE svg PUBLIC "-//W3C//DTD SVG 20010904//EN"
 "http://www.w3.org/TR/2001/REC-SVG-20010904/DTD/svg10.dtd">
<svg version="1.0" xmlns="http://www.w3.org/2000/svg"
 width="512.000000pt" height="512.000000pt" viewBox="0 0 512.000000 512.000000"
 preserveAspectRatio="xMidYMid meet">

<g transform="translate(0.000000,512.000000) scale(0.100000,-0.100000)"
fill="#000000" stroke="none">
<path d="M2515 4915 l-25 -24 0 -376 0 -375 -44 0 c-77 0 -275 -39 -384 -75
-474 -159 -848 -533 -1007 -1007 -36 -109 -75 -307 -75 -384 l0 -44 -375 0
-376 0 -24 -25 c-32 -31 -32 -59 0 -90 l24 -25 376 0 375 0 0 -44 c0 -75 37
-267 74 -378 156 -476 531 -852 1010 -1012 112 -38 304 -76 382 -76 l44 0 0
-375 0 -376 25 -24 c13 -14 34 -25 45 -25 11 0 32 11 45 25 l25 24 0 374 0
374 86 7 c372 28 771 231 1026 521 143 163 259 365 324 563 37 111 74 303 74
378 l0 44 375 0 376 0 24 25 c32 31 32 59 0 90 l-24 25 -376 0 -375 0 0 44 c0
24 -9 95 -19 158 -73 421 -323 806 -681 1045 -214 143 -487 241 -724 259 l-86
7 0 374 0 374 -25 24 c-31 32 -59 32 -90 0z m290 -930 c445 -77 843 -372 1044
-774 330 -657 118 -1455 -494 -1856 -579 -379 -1329 -303 -1815 185 -216 216
-352 479 -407 785 -21 119 -21 351 0 470 83 465 369 851 787 1060 271 136 584
181 885 130z"/>
<path d="M2821 3707 c-36 -18 -48 -63 -25 -94 19 -25 175 -90 241 -100 54 -8
90 47 63 98 -14 24 -54 45 -159 80 -98 33 -89 32 -120 16z"/>
<path d="M3242 3474 c-16 -11 -22 -25 -22 -50 0 -30 10 -45 73 -107 127 -124
211 -257 266 -422 41 -123 83 -154 136 -100 31 30 31 44 -1 141 -66 196 -191
387 -337 513 -52 44 -79 50 -115 25z"/>
<path d="M1346 4598 c-9 -12 -16 -32 -16 -43 0 -20 219 -406 252 -445 36 -41
118 -10 118 45 0 24 -233 433 -258 453 -26 20 -79 15 -96 -10z"/>
<path d="M3678 4608 c-26 -21 -258 -430 -258 -455 0 -55 82 -84 118 -43 33 39
252 425 252 445 0 36 -28 65 -64 65 -18 0 -39 -6 -48 -12z"/>
<path d="M522 3774 c-25 -17 -30 -70 -9 -96 19 -25 428 -258 452 -258 55 0 86
82 45 118 -39 33 -425 252 -445 252 -11 0 -31 -7 -43 -16z"/>
<path d="M4321 3666 c-117 -68 -217 -130 -222 -137 -26 -42 7 -109 54 -109 25
0 434 232 455 258 6 9 12 30 12 48 0 36 -29 64 -65 64 -11 0 -116 -56 -234
-124z"/>
<path d="M735 1579 c-116 -67 -216 -128 -222 -137 -7 -9 -13 -30 -13 -48 0
-36 29 -64 65 -64 20 0 406 219 445 252 41 36 12 118 -43 118 -13 0 -117 -54
-232 -121z"/>
<path d="M4110 1680 c-26 -26 -26 -75 0 -98 39 -33 425 -252 445 -252 36 0 65
28 65 64 0 18 -6 39 -12 48 -21 26 -430 258 -455 258 -13 0 -32 -9 -43 -20z"/>
<path d="M1582 1010 c-33 -39 -252 -425 -252 -445 0 -36 28 -65 64 -65 18 0
39 6 48 13 25 19 258 428 258 452 0 55 -82 86 -118 45z"/>
<path d="M3440 1010 c-11 -11 -20 -30 -20 -43 0 -25 232 -434 258 -454 9 -7
30 -13 48 -13 36 0 64 29 64 65 0 20 -219 406 -252 445 -23 26 -72 26 -98 0z"/>
</g>
</svg>
