<?xml version="1.0" standalone="no"?>
<!DOCTYPE svg PUBLIC "-//W3C//DTD SVG 20010904//EN"
 "http://www.w3.org/TR/2001/REC-SVG-20010904/DTD/svg10.dtd">
<svg version="1.0" xmlns="http://www.w3.org/2000/svg"
 width="512.000000pt" height="512.000000pt" viewBox="0 0 512.000000 512.000000"
 preserveAspectRatio="xMidYMid meet">

<g transform="translate(0.000000,512.000000) scale(0.100000,-0.100000)"
fill="#000000" stroke="none">
<path d="M3156 4919 l-26 -20 0 -265 c0 -203 -3 -265 -12 -268 -7 -2 -49 -10
-93 -18 -269 -52 -495 -225 -621 -476 l-33 -66 -128 2 c-274 6 -513 -76 -726
-248 -259 -210 -426 -582 -404 -902 l5 -78 -63 0 c-222 0 -494 -132 -649 -314
-165 -194 -246 -456 -217 -702 38 -322 234 -595 525 -729 121 -57 206 -76 357
-82 l136 -6 6 -67 c9 -113 65 -198 161 -247 188 -96 408 34 424 250 l5 67 168
0 168 0 -6 -88 c-9 -149 29 -255 126 -352 99 -99 239 -145 368 -121 233 43
376 231 360 473 l-6 88 168 0 168 0 5 -67 c16 -217 235 -346 424 -250 96 49
152 134 161 247 l6 68 186 4 c178 4 190 6 279 36 104 36 160 65 243 129 280
212 385 599 252 931 -67 165 -217 329 -376 407 -98 48 -224 85 -291 85 -23 0
-46 4 -52 8 -6 4 -14 45 -17 92 -11 153 -72 286 -184 397 l-73 72 55 82 c65
97 108 205 132 328 l18 91 263 0 c249 0 263 1 282 20 28 28 27 84 -2 104 -19
14 -63 16 -283 16 l-260 0 -16 88 c-65 345 -324 621 -661 702 -46 11 -95 20
-110 20 l-28 0 0 265 0 266 -25 24 c-30 30 -54 31 -89 4z m224 -714 c255 -61
473 -279 540 -542 27 -104 27 -262 0 -367 -23 -91 -87 -219 -139 -277 l-37
-42 -65 17 c-91 23 -240 21 -319 -3 -44 -14 -62 -16 -65 -8 -2 7 -14 41 -26
77 -46 138 -136 289 -242 406 -100 111 -283 229 -431 279 l-85 29 37 71 c53
102 191 237 297 292 173 89 350 112 535 68z m-897 -569 c93 -28 202 -79 277
-129 182 -123 333 -329 388 -531 l19 -69 -72 -71 c-79 -78 -116 -136 -152
-233 -20 -56 -22 -68 -11 -91 7 -15 26 -31 41 -36 45 -16 76 8 101 79 28 77
71 140 138 200 89 80 191 118 318 117 219 -1 400 -145 457 -365 12 -47 14 -86
9 -164 -9 -137 -5 -142 131 -141 192 0 342 -60 474 -191 85 -86 125 -150 165
-266 23 -68 27 -97 28 -190 0 -132 -18 -206 -77 -320 -73 -141 -207 -255 -369
-313 -68 -24 -87 -26 -278 -30 l-205 -3 -33 69 c-38 81 -118 205 -161 251 -39
41 -73 41 -114 -1 -42 -45 -140 -199 -169 -264 l-23 -54 -215 0 -215 0 -45 97
c-90 194 -259 447 -307 459 -45 12 -68 -5 -135 -93 -81 -107 -158 -237 -218
-366 l-45 -97 -215 0 -215 0 -23 54 c-29 65 -127 219 -169 264 -40 42 -75 42
-114 1 -45 -48 -126 -175 -162 -251 l-32 -70 -150 5 c-171 6 -231 19 -350 78
-198 97 -349 281 -407 496 -30 112 -30 289 0 396 80 281 291 488 572 558 120
31 300 24 415 -15 106 -36 180 -77 259 -142 86 -71 146 -148 202 -259 25 -49
53 -98 61 -107 41 -45 122 2 109 63 -11 56 -74 175 -136 258 -130 172 -327
298 -542 345 -25 6 -27 10 -33 79 -14 143 25 337 96 484 130 272 381 465 685
528 112 23 337 14 447 -19z m151 -2473 c225 -345 273 -594 141 -741 -117 -130
-313 -130 -430 0 -132 147 -85 396 139 739 36 54 70 99 76 99 6 0 39 -44 74
-97z m-1069 -203 c51 -88 95 -210 95 -266 0 -85 -69 -154 -155 -154 -62 0
-108 28 -134 84 -28 57 -26 95 8 193 30 86 117 237 131 228 4 -3 29 -41 55
-85z m2101 15 c51 -84 104 -221 104 -274 0 -49 -36 -117 -74 -141 -45 -27
-118 -27 -163 1 -40 25 -73 85 -73 134 0 45 43 175 77 235 41 71 73 120 77
120 3 0 26 -34 52 -75z"/>
<path d="M3146 4039 c-21 -30 -20 -61 2 -88 13 -16 35 -23 97 -31 182 -23 323
-139 375 -308 11 -35 20 -84 20 -109 0 -33 6 -50 25 -68 30 -30 54 -31 89 -4
22 17 26 28 26 69 0 114 -61 271 -140 363 -98 112 -247 186 -391 195 -82 4
-87 3 -103 -19z"/>
<path d="M2139 3402 c-15 -13 -22 -30 -22 -51 0 -51 22 -65 121 -73 48 -3 108
-10 133 -13 40 -6 50 -4 68 14 27 27 27 72 1 96 -47 42 -258 61 -301 27z"/>
<path d="M1804 3286 c-176 -131 -270 -297 -299 -524 -11 -87 30 -145 88 -123
35 14 44 31 51 101 20 192 103 330 279 463 30 22 37 35 37 61 0 77 -69 87
-156 22z"/>
<path d="M4005 1932 c-65 -24 -121 -61 -136 -90 -17 -30 -2 -72 33 -91 25 -14
30 -13 98 22 62 32 81 37 139 37 144 0 246 -95 267 -247 4 -30 14 -59 24 -68
26 -24 79 -16 102 16 17 23 18 32 8 93 -22 137 -106 252 -228 309 -58 28 -79
32 -162 35 -73 2 -107 -2 -145 -16z"/>
<path d="M2455 4725 c-14 -13 -25 -32 -25 -43 0 -25 136 -262 166 -289 14 -13
34 -23 45 -23 26 0 69 43 69 69 0 27 -146 277 -173 296 -31 21 -54 19 -82 -10z"/>
<path d="M3857 4738 c-28 -22 -167 -271 -167 -300 0 -47 57 -81 98 -59 29 15
175 270 175 305 1 51 -65 84 -106 54z"/>
<path d="M1955 4225 c-31 -30 -32 -65 -2 -92 39 -37 265 -163 291 -163 26 0
66 41 66 69 0 9 -7 26 -15 38 -17 24 -273 173 -298 173 -10 0 -29 -11 -42 -25z"/>
<path d="M4348 4230 c-83 -44 -243 -143 -250 -153 -25 -39 11 -107 56 -107 23
0 278 143 297 166 20 25 15 75 -10 96 -29 23 -47 23 -93 -2z"/>
<path d="M4110 2970 c-27 -27 -26 -71 3 -97 12 -11 79 -53 149 -93 120 -68
130 -72 157 -60 16 6 35 25 42 41 18 45 -6 69 -151 155 -132 77 -167 87 -200
54z"/>
</g>
</svg>
