<?xml version="1.0" standalone="no"?>
<!DOCTYPE svg PUBLIC "-//W3C//DTD SVG 20010904//EN"
 "http://www.w3.org/TR/2001/REC-SVG-20010904/DTD/svg10.dtd">
<svg version="1.0" xmlns="http://www.w3.org/2000/svg"
 width="512.000000pt" height="512.000000pt" viewBox="0 0 512.000000 512.000000"
 preserveAspectRatio="xMidYMid meet">

<g transform="translate(0.000000,512.000000) scale(0.100000,-0.100000)"
fill="#000000" stroke="none">
<path d="M443 5070 c-165 -30 -312 -140 -389 -292 -74 -146 -67 -359 17 -494
53 -86 142 -170 225 -212 155 -79 373 -66 519 32 143 96 228 236 242 403 20
235 -140 474 -363 543 -76 23 -183 32 -251 20z m148 -322 c169 -50 200 -278
52 -378 -31 -21 -48 -25 -113 -25 -65 0 -82 4 -113 25 -117 79 -129 252 -23
336 64 51 125 64 197 42z"/>
<path d="M3000 4553 c-803 -59 -1510 -532 -1868 -1248 -160 -320 -235 -641
-235 -1005 0 -214 18 -358 68 -556 154 -604 559 -1126 1108 -1425 441 -241
957 -327 1452 -243 611 103 1156 456 1501 971 36 54 72 110 79 124 l14 26
-127 71 c-70 39 -132 72 -139 74 -6 2 -43 -44 -80 -102 -255 -389 -644 -674
-1098 -805 -173 -50 -304 -68 -510 -69 -261 -1 -446 30 -689 118 -514 186
-955 627 -1141 1140 -85 237 -119 429 -119 676 0 521 194 992 562 1363 663
670 1702 766 2477 229 219 -151 418 -361 549 -580 l38 -62 76 42 c43 23 105
58 140 78 l62 36 -54 86 c-227 363 -530 637 -916 829 -355 176 -769 260 -1150
232z"/>
</g>
</svg>
