<?xml version="1.0" standalone="no"?>
<!DOCTYPE svg PUBLIC "-//W3C//DTD SVG 20010904//EN"
 "http://www.w3.org/TR/2001/REC-SVG-20010904/DTD/svg10.dtd">
<svg version="1.0" xmlns="http://www.w3.org/2000/svg"
 width="512.000000pt" height="512.000000pt" viewBox="0 0 512.000000 512.000000"
 preserveAspectRatio="xMidYMid meet">

<g transform="translate(0.000000,512.000000) scale(0.100000,-0.100000)"
fill="#000000" stroke="none">
<path d="M895 5106 c-37 -17 -70 -52 -84 -89 -6 -16 -11 -105 -11 -209 0 -161
2 -186 20 -223 53 -109 208 -112 262 -4 15 29 18 63 18 227 0 215 -6 244 -60
282 -39 28 -105 35 -145 16z"/>
<path d="M2492 5103 c-18 -9 -43 -30 -55 -47 -21 -29 -22 -43 -25 -236 -2
-180 0 -209 15 -239 25 -48 63 -73 120 -78 63 -6 110 20 140 77 22 40 23 55
23 228 0 165 -2 190 -20 227 -36 74 -125 104 -198 68z"/>
<path d="M4100 5103 c-19 -10 -45 -33 -57 -52 -22 -33 -23 -42 -23 -240 0
-188 2 -209 20 -239 72 -117 240 -85 271 52 6 31 10 116 7 216 -3 143 -6 170
-23 199 -43 72 -126 100 -195 64z"/>
<path d="M1715 4633 c-33 -9 -74 -43 -90 -73 -12 -23 -15 -73 -15 -239 l0
-209 26 -32 c71 -83 185 -80 244 7 25 36 25 40 25 237 0 221 -5 243 -63 285
-31 21 -93 33 -127 24z"/>
<path d="M3305 4626 c-37 -16 -70 -52 -84 -89 -6 -16 -11 -105 -11 -210 0
-158 3 -188 20 -224 48 -106 198 -112 260 -11 18 30 20 51 20 233 0 233 -6
254 -80 293 -50 25 -82 27 -125 8z"/>
<path d="M907 4146 c-51 -19 -85 -52 -98 -95 -6 -22 -9 -110 -7 -226 3 -180 4
-192 26 -223 31 -42 74 -64 130 -64 51 0 84 20 120 72 21 31 22 42 22 235 0
193 -1 204 -22 235 -46 66 -105 89 -171 66z"/>
<path d="M2516 4150 c-16 -5 -40 -19 -53 -32 -45 -42 -53 -70 -53 -183 0 -58
-3 -105 -7 -105 -5 0 -54 -7 -110 -15 -763 -108 -1392 -667 -1587 -1411 -31
-121 -53 -261 -61 -404 -6 -97 -5 -108 17 -149 27 -52 74 -81 131 -81 47 0 64
9 146 77 37 30 102 72 146 94 246 121 547 79 753 -106 56 -51 87 -65 141 -65
40 0 53 8 160 93 64 50 184 112 239 123 l33 7 -3 -719 -3 -719 -26 -55 c-36
-77 -77 -121 -151 -161 -57 -30 -71 -33 -148 -34 -103 0 -171 27 -238 96 -55
57 -81 112 -94 201 -11 85 -31 124 -78 155 -78 53 -198 5 -219 -89 -12 -53 6
-182 38 -263 98 -254 352 -418 621 -402 231 15 429 145 530 349 70 143 70 137
70 932 l0 709 33 -7 c62 -12 193 -83 266 -145 41 -34 85 -64 98 -67 37 -10
104 2 129 23 115 94 146 116 200 143 247 121 529 84 753 -100 81 -66 103 -75
161 -67 55 7 96 40 116 93 15 41 16 58 5 187 -33 397 -159 727 -397 1038 -78
102 -241 266 -339 340 -271 207 -578 337 -906 384 -57 8 -107 15 -111 15 -3 0
-8 51 -10 114 -4 132 -14 156 -88 194 -47 24 -59 25 -104 12z m362 -649 c550
-123 990 -487 1182 -977 38 -97 92 -285 84 -293 -2 -2 -29 6 -61 17 -107 39
-177 53 -298 59 -204 9 -385 -36 -553 -138 l-82 -50 -76 46 c-172 104 -300
139 -514 139 -214 0 -342 -35 -514 -139 l-76 -46 -82 50 c-165 101 -348 147
-548 138 -112 -4 -233 -29 -313 -62 -20 -8 -41 -15 -46 -15 -11 0 10 96 46
205 155 474 537 851 1030 1013 101 34 154 47 313 76 14 2 113 3 220 1 152 -2
215 -8 288 -24z"/>
<path d="M4128 4150 c-37 -11 -68 -34 -89 -67 -17 -25 -19 -51 -19 -237 0
-189 2 -212 19 -240 58 -92 195 -90 254 4 21 33 22 47 22 235 0 183 -2 203
-20 235 -33 56 -109 88 -167 70z"/>
</g>
</svg>
