<?xml version="1.0" standalone="no"?>
<!DOCTYPE svg PUBLIC "-//W3C//DTD SVG 20010904//EN"
 "http://www.w3.org/TR/2001/REC-SVG-20010904/DTD/svg10.dtd">
<svg version="1.0" xmlns="http://www.w3.org/2000/svg"
 width="512.000000pt" height="512.000000pt" viewBox="0 0 512.000000 512.000000"
 preserveAspectRatio="xMidYMid meet">

<g transform="translate(0.000000,512.000000) scale(0.100000,-0.100000)"
fill="#000000" stroke="none">
<path d="M3955 4693 c-185 -17 -397 -99 -545 -210 -61 -47 -80 -79 -80 -136 0
-92 55 -147 148 -147 42 0 59 6 113 44 158 108 282 148 459 149 89 0 133 -5
195 -22 220 -61 396 -205 494 -405 59 -120 75 -190 75 -336 1 -149 -14 -215
-79 -345 -99 -201 -256 -329 -500 -407 -31 -10 -360 -14 -1547 -18 -1502 -5
-1507 -5 -1534 -26 -51 -38 -69 -71 -69 -128 0 -66 36 -120 93 -136 26 -8 482
-10 1542 -8 l1505 3 85 24 c320 89 564 290 702 578 140 293 141 646 1 928 -77
154 -238 337 -375 426 -204 132 -448 193 -683 172z"/>
<path d="M106 3450 c-94 -29 -135 -157 -75 -234 39 -49 66 -56 221 -56 125 0
147 3 176 20 99 61 95 203 -8 257 -38 20 -57 23 -164 22 -67 0 -134 -5 -150
-9z"/>
<path d="M902 3453 c-12 -3 -40 -21 -61 -41 -53 -51 -62 -104 -29 -169 45 -89
-24 -84 946 -81 l853 3 40 42 c35 38 39 47 39 95 0 68 -27 113 -83 138 -40 19
-73 20 -862 18 -451 0 -830 -3 -843 -5z"/>
<path d="M106 2250 c-94 -29 -135 -157 -75 -234 47 -59 -31 -56 1291 -56 1005
-1 1227 -3 1293 -15 342 -61 571 -414 485 -749 -45 -179 -163 -327 -321 -405
-207 -103 -431 -86 -633 47 -62 41 -87 52 -118 52 -139 0 -205 -161 -106 -257
54 -53 190 -128 289 -161 341 -112 702 -23 950 235 343 356 343 910 0 1266
-120 126 -270 213 -442 259 l-84 22 -1250 2 c-702 2 -1263 -1 -1279 -6z"/>
<path d="M838 1639 c-43 -22 -78 -81 -78 -129 0 -50 35 -107 80 -130 38 -19
58 -20 520 -20 462 0 482 1 520 20 45 23 80 80 80 130 0 50 -35 107 -80 130
-38 19 -57 20 -522 20 -461 -1 -485 -2 -520 -21z"/>
</g>
</svg>
